<?xml version="1.0" standalone="no"?>
<!DOCTYPE svg PUBLIC "-//W3C//DTD SVG 20010904//EN"
 "http://www.w3.org/TR/2001/REC-SVG-20010904/DTD/svg10.dtd">
<svg version="1.0" xmlns="http://www.w3.org/2000/svg"
 width="512.000000pt" height="512.000000pt" viewBox="0 0 512.000000 512.000000"
 preserveAspectRatio="xMidYMid meet">

<g transform="translate(0.000000,512.000000) scale(0.100000,-0.100000)"
fill="#000000" stroke="none">
<path d="M433 5105 c-132 -36 -245 -128 -302 -247 -40 -85 -54 -192 -49 -377
3 -142 13 -176 56 -198 9 -4 175 -10 367 -13 l350 -5 5 -1966 5 -1965 37 -75
c42 -84 115 -163 187 -203 109 -59 23 -56 1728 -56 1119 0 1577 3 1615 11 174
37 316 184 349 363 6 32 9 132 7 223 -4 213 5 203 -189 203 -151 0 -183 -8
-197 -50 -11 -32 7 -84 33 -94 9 -3 60 -6 112 -6 l95 0 -4 -137 c-3 -120 -7
-144 -27 -187 -31 -63 -90 -122 -150 -150 l-46 -21 -1388 -3 -1388 -2 25 33
c14 18 38 60 53 92 26 55 28 72 33 215 l5 155 1218 5 c1192 5 1219 5 1233 24
23 33 18 82 -12 105 -21 16 -41 21 -90 21 l-64 0 0 440 0 441 -25 24 c-31 32
-69 32 -100 0 l-25 -24 0 -441 0 -440 -516 0 -517 0 7 73 c15 153 4 137 121
176 218 71 415 188 555 330 154 156 186 230 140 321 l-20 39 51 58 c76 86 142
191 220 347 77 156 169 384 169 420 0 13 -9 35 -21 49 l-20 27 38 31 c120 101
364 388 392 462 19 50 -14 97 -67 97 -39 0 -47 -8 -143 -137 l-60 -83 -320 0
-319 0 56 88 c84 131 157 234 261 370 l94 122 294 0 c162 0 295 -2 295 -5 0
-3 -9 -23 -20 -45 -25 -49 -25 -81 -2 -111 23 -28 73 -30 102 -4 30 27 120
217 120 253 0 18 -10 43 -27 62 -18 22 -24 36 -17 44 32 43 105 159 127 201
63 127 127 351 157 553 28 191 11 213 -144 193 -226 -30 -443 -119 -685 -281
-101 -68 -124 -79 -140 -70 -35 18 -58 11 -122 -37 -85 -64 -273 -247 -368
-358 -268 -313 -514 -725 -677 -1133 l-49 -122 -41 6 c-24 3 -51 1 -63 -5 -28
-16 -114 -194 -146 -305 -97 -339 -58 -803 106 -1248 l42 -113 -13 -132 -13
-133 -518 0 c-366 0 -525 -3 -543 -11 -38 -18 -46 -58 -46 -234 0 -188 -10
-229 -72 -300 -22 -25 -64 -58 -92 -73 -43 -22 -64 -27 -131 -27 -67 0 -88 5
-131 27 -57 30 -118 93 -142 147 -16 33 -17 217 -22 2226 -6 2456 2 2227 -80
2353 l-40 62 1071 0 1070 0 24 25 c32 31 32 69 0 100 l-24 25 -1273 -1 c-1062
0 -1282 -3 -1325 -14z m203 -150 c78 -23 143 -80 183 -158 34 -65 34 -69 39
-222 l5 -155 -318 0 -318 0 5 155 c5 153 5 157 39 222 70 138 218 202 365 158z
m4153 -399 c-2 -2 -49 -39 -104 -81 -168 -131 -302 -251 -483 -433 -96 -96
-175 -172 -176 -170 -9 10 -16 348 -7 348 5 0 13 -4 16 -10 3 -5 21 -10 39
-10 24 0 49 13 92 46 149 117 352 230 512 284 78 26 123 37 111 26z m31 -247
c-50 -193 -123 -341 -219 -442 -45 -47 -55 -64 -55 -93 l0 -34 -208 0 c-196 0
-208 1 -199 18 15 27 264 277 382 382 129 116 310 263 316 256 3 -2 -5 -42
-17 -87z m-946 -428 l7 -190 -96 -123 c-53 -68 -144 -194 -203 -281 -59 -87
-108 -154 -109 -150 -1 4 -23 86 -48 181 l-46 172 70 103 c129 188 390 495
411 482 4 -2 10 -90 14 -194z m-553 -758 l46 -178 -83 -160 c-46 -88 -111
-223 -145 -300 -34 -77 -65 -144 -69 -148 -4 -4 -30 58 -59 139 l-53 147 27
76 c55 155 266 601 285 601 3 0 26 -80 51 -177z m749 -268 c0 -8 -80 -78 -140
-122 -62 -44 -70 -57 -70 -107 0 -33 37 -86 60 -86 5 0 10 -6 10 -13 0 -13
-48 -137 -55 -146 -6 -5 -680 -170 -683 -166 -10 9 133 329 230 513 l69 132
290 0 c159 0 289 -2 289 -5z m-1171 -513 c44 -125 81 -234 81 -241 0 -7 -18
-68 -40 -135 -46 -142 -109 -374 -135 -499 -10 -49 -22 -83 -25 -75 -13 24
-58 222 -77 333 -24 147 -24 425 0 546 24 120 87 299 106 299 4 0 45 -103 90
-228z m865 -194 c-48 -96 -136 -222 -202 -290 -75 -78 -78 -92 -38 -177 24
-53 24 -56 8 -84 -9 -17 -51 -64 -92 -106 -115 -117 -286 -223 -457 -285 l-73
-26 0 22 c0 79 108 524 181 745 l30 92 322 80 c177 43 328 80 335 80 8 1 3
-17 -14 -51z"/>
<path d="M3276 5099 c-33 -26 -36 -77 -5 -105 19 -17 42 -20 203 -24 156 -5
187 -8 227 -27 97 -44 171 -141 184 -243 11 -80 15 -89 47 -106 29 -15 34 -15
64 0 43 20 51 51 36 139 -32 187 -177 338 -360 376 -29 6 -124 11 -211 11
-145 0 -161 -2 -185 -21z"/>
<path d="M1416 4069 c-33 -26 -36 -79 -6 -109 17 -17 33 -20 99 -20 74 0 81 2
100 26 24 30 26 43 10 77 -15 34 -49 47 -118 47 -44 0 -65 -5 -85 -21z"/>
<path d="M1835 4079 c-49 -27 -58 -70 -24 -113 l20 -26 708 0 708 0 21 23 c27
29 28 67 3 98 l-19 24 -699 2 c-495 2 -704 -1 -718 -8z"/>
<path d="M1430 3530 c-38 -38 -22 -100 31 -119 45 -15 1293 -15 1338 0 53 19
68 77 31 117 l-21 22 -679 0 c-667 0 -680 0 -700 -20z"/>
<path d="M1432 2997 c-29 -31 -28 -72 3 -102 l24 -25 514 0 c572 0 550 -3 563
67 5 26 1 37 -19 57 l-26 26 -519 0 -519 0 -21 -23z"/>
<path d="M1435 2465 c-32 -31 -33 -74 -2 -103 23 -22 25 -22 463 -22 l441 0
21 23 c29 31 28 72 -3 102 l-24 25 -436 0 -436 0 -24 -25z"/>
<path d="M1454 1946 c-48 -21 -60 -80 -24 -116 19 -19 33 -20 465 -20 432 0
446 1 465 20 38 38 22 100 -31 119 -50 17 -834 14 -875 -3z"/>
<path d="M1432 1397 c-27 -29 -28 -67 -3 -98 l19 -24 441 -3 441 -3 25 25 c32
32 33 75 2 104 -23 22 -25 22 -463 22 l-441 0 -21 -23z"/>
</g>
</svg>
