<?xml version="1.0" standalone="no"?>
<!DOCTYPE svg PUBLIC "-//W3C//DTD SVG 20010904//EN"
 "http://www.w3.org/TR/2001/REC-SVG-20010904/DTD/svg10.dtd">
<svg version="1.0" xmlns="http://www.w3.org/2000/svg"
 width="64.000000pt" height="64.000000pt" viewBox="0 0 64.000000 64.000000"
 preserveAspectRatio="xMidYMid meet">

<g transform="translate(0.000000,64.000000) scale(0.100000,-0.100000)"
fill="#000000" stroke="none">
<path d="M100 320 l0 -300 30 0 c23 0 30 4 30 20 0 19 7 20 160 20 153 0 160
-1 160 -20 0 -16 7 -20 30 -20 l30 0 0 300 0 300 -220 0 -220 0 0 -300z m40 0
c0 -180 -4 -280 -10 -280 -6 0 -10 100 -10 280 0 180 4 280 10 280 6 0 10
-100 10 -280z m340 270 c0 -6 -60 -10 -160 -10 -100 0 -160 4 -160 10 0 6 60
10 160 10 100 0 160 -4 160 -10z m40 -270 c0 -180 -4 -280 -10 -280 -6 0 -10
100 -10 280 0 180 4 280 10 280 6 0 10 -100 10 -280z m-40 170 c0 -40 -4 -70
-10 -70 -5 0 -10 23 -10 50 0 43 -3 50 -20 50 -11 0 -20 5 -20 10 0 6 -13 10
-30 10 -16 0 -30 -4 -30 -10 0 -5 -9 -10 -20 -10 -17 0 -20 -7 -20 -50 0 -43
-3 -50 -20 -50 -17 0 -20 7 -20 50 0 43 -3 50 -20 50 -11 0 -20 5 -20 10 0 6
-13 10 -30 10 l-30 0 0 -60 c0 -33 -4 -60 -10 -60 -6 0 -10 30 -10 70 l0 70
160 0 160 0 0 -70z m-260 20 c0 -5 -4 -10 -10 -10 -5 0 -10 5 -10 10 0 6 5 10
10 10 6 0 10 -4 10 -10z m180 0 c0 -5 -4 -10 -10 -10 -5 0 -10 5 -10 10 0 6 5
10 10 10 6 0 10 -4 10 -10z m-140 -20 c0 -5 -4 -10 -10 -10 -5 0 -10 5 -10 10
0 6 5 10 10 10 6 0 10 -4 10 -10z m100 0 c0 -5 -4 -10 -10 -10 -5 0 -10 5 -10
10 0 6 5 10 10 10 6 0 10 -4 10 -10z m80 0 c0 -5 -4 -10 -10 -10 -5 0 -10 5
-10 10 0 6 5 10 10 10 6 0 10 -4 10 -10z m-220 -40 c0 -16 -4 -30 -10 -30 -5
0 -10 14 -10 30 0 17 5 30 10 30 6 0 10 -13 10 -30z m180 0 c0 -16 -4 -30 -10
-30 -5 0 -10 14 -10 30 0 17 5 30 10 30 6 0 10 -13 10 -30z m-140 -10 c0 -11
-4 -20 -10 -20 -5 0 -10 9 -10 20 0 11 5 20 10 20 6 0 10 -9 10 -20z m100 0
c0 -11 -4 -20 -10 -20 -5 0 -10 9 -10 20 0 11 5 20 10 20 6 0 10 -9 10 -20z
m80 0 c0 -11 -4 -20 -10 -20 -5 0 -10 9 -10 20 0 11 5 20 10 20 6 0 10 -9 10
-20z m40 -50 c0 -6 -60 -10 -160 -10 -100 0 -160 4 -160 10 0 6 60 10 160 10
100 0 160 -4 160 -10z m0 -100 c0 -40 -4 -70 -10 -70 -6 0 -10 27 -10 60 l0
60 -30 0 c-16 0 -30 -4 -30 -10 0 -5 -9 -10 -20 -10 -17 0 -20 -7 -20 -50 0
-43 -3 -50 -20 -50 -13 0 -20 7 -20 20 0 11 -4 20 -10 20 -5 0 -10 9 -10 20 0
18 -7 20 -60 20 l-60 0 0 -40 c0 -22 -4 -40 -10 -40 -6 0 -10 30 -10 70 l0 70
160 0 160 0 0 -70z m-40 20 c0 -5 -4 -10 -10 -10 -5 0 -10 5 -10 10 0 6 5 10
10 10 6 0 10 -4 10 -10z m-40 -20 c0 -5 -4 -10 -10 -10 -5 0 -10 5 -10 10 0 6
5 10 10 10 6 0 10 -4 10 -10z m-160 -20 c0 -5 -9 -10 -20 -10 -11 0 -20 5 -20
10 0 6 9 10 20 10 11 0 20 -4 20 -10z m40 0 c0 -5 -4 -10 -10 -10 -5 0 -10 5
-10 10 0 6 5 10 10 10 6 0 10 -4 10 -10z m160 -20 c0 -16 -4 -30 -10 -30 -5 0
-10 14 -10 30 0 17 5 30 10 30 6 0 10 -13 10 -30z m-40 -10 c0 -11 -4 -20 -10
-20 -5 0 -10 9 -10 20 0 11 5 20 10 20 6 0 10 -9 10 -20z m-140 -10 c0 -5 -13
-10 -30 -10 -16 0 -30 5 -30 10 0 6 14 10 30 10 17 0 30 -4 30 -10z m40 0 c0
-5 -4 -10 -10 -10 -5 0 -10 5 -10 10 0 6 5 10 10 10 6 0 10 -4 10 -10z m10
-90 l0 -60 -75 0 -75 0 0 60 0 60 75 0 75 0 0 -60z m170 0 l0 -60 -75 0 -75 0
0 60 0 60 75 0 75 0 0 -60z"/>
<path d="M270 140 c0 -16 5 -30 10 -30 6 0 10 14 10 30 0 17 -4 30 -10 30 -5
0 -10 -13 -10 -30z"/>
<path d="M350 140 c0 -16 5 -30 10 -30 6 0 10 14 10 30 0 17 -4 30 -10 30 -5
0 -10 -13 -10 -30z"/>
</g>
</svg>
